# xmcd CD database file
#
# Track frame offsets:
#	150
#	70373
#	93812
#	112711
#	148984
#	168263
#	205832
#	231600
#	260256
#	291129
#	307563
#
# Disc length: 4711 seconds
#
# Revision: 0
# Processed by: cddbd v1.5.2PL0 Copyright (c) Steve Scherf et al.
# Submitted via: CDex 1.70beta2
#
DISCID=9412650b
DTITLE=Gil Evans - Out OfThe Cool - Into The Hot
DYEAR=1961
DGENRE=Jazz
TTITLE0=La Nevada
TTITLE1=Where Flamingos Fly
TTITLE2=Bilbao Song
TTITLE3=Stratusphunk
TTITLE4=Sunken Treasure
TTITLE5=Moon Taj
TTITLE6=Pots
TTITLE7=Angkor Wat
TTITLE8=Bulbs
TTITLE9=Barry's Tune
TTITLE10=Mixed
EXTD=YEAR: 1961
EXTT0=
EXTT1=
EXTT2=
EXTT3=
EXTT4=
EXTT5=
EXTT6=
EXTT7=
EXTT8=
EXTT9=
EXTT10=
PLAYORDER=
